<?xml version="1.0" encoding="UTF-8"?>
<!-- Generator: Adobe Illustrator 27.0.1, SVG Export Plug-In . SVG Version: 6.00 Build 0)  -->
<svg width="82.358" height="80.6" version="1.1" viewBox="0 0 82.358 80.6" xml:space="preserve" xmlns="http://www.w3.org/2000/svg">
<style type="text/css">
	.st0{fill:#FFFFFF;stroke:#033B57;stroke-width:2;stroke-miterlimit:10;}
	.st1{fill:#729237;}
	.st2{fill:#0D3956;}
</style>
<g transform="translate(-22.2,-19.8)">
		
			
				<circle class="st1" cx="47.5" cy="59.6" r="2.9"/>
			
			
				<circle class="st1" cx="57.4" cy="23" r="2.9"/>
			
			
				<circle class="st1" cx="44.4" cy="31.8" r="2.4"/>
			
			
				<circle class="st1" cx="44.1" cy="40" r="4.1"/>
			
			
				<circle class="st1" cx="36.1" cy="47.3" r="2.7"/>
			
			
				<ellipse class="st1" cx="32.2" cy="54.7" rx="4.5" ry="4.4"/>
			
			
				<ellipse class="st1" cx="34.4" cy="66.1" rx="2.8" ry="2.7"/>
			
			
				<circle class="st1" cx="35.3" cy="74.1" r="4.1"/>
			
			
				<circle class="st1" cx="42.1" cy="79.6" r="2"/>
			
			
				<circle class="st1" cx="49.7" cy="53" r="2"/>
			
			
				<circle class="st1" cx="46.2" cy="68" r="2.3"/>
			
			
				<circle class="st1" cx="23.6" cy="59.4" r="1.4"/>
			
			
				<circle class="st1" cx="26.2" cy="71.8" r="2"/>
			
			
				<circle class="st1" cx="40.6" cy="59" r="1.9"/>
			
			
				<circle class="st1" cx="41.4" cy="46.5" r="1.7"/>
			
			
				<circle class="st1" cx="47.1" cy="80.5" r="2"/>
			
			
				<circle class="st1" cx="56.5" cy="85.9" r="3.7"/>
			
			
				<circle class="st1" cx="52.1" cy="71.2" r="2.1"/>
			
			
				<circle class="st1" cx="58" cy="68.7" r="2.1"/>
			
			
				<circle class="st2" cx="57.9" cy="30.2" r="2.6"/>
			
			
				<ellipse class="st2" cx="52.6" cy="38.3" rx="3.4" ry="3.3"/>
			
			
				<circle class="st2" cx="51" cy="30.6" r="3.3"/>
			
			
				<circle class="st2" cx="37.1" cy="33.9" r="4"/>
			
			
				<circle class="st2" cx="37.2" cy="42.3" r="1.9"/>
			
			
				<circle class="st2" cx="27.1" cy="48" r="2.7"/>
			
			
				<circle class="st2" cx="24.7" cy="54.6" r="2.3"/>
			
			
				<circle class="st2" cx="26.9" cy="64.6" r="3.9"/>
			
			
				<circle class="st2" cx="28.5" cy="77.6" r="2.2"/>
			
			
				<ellipse class="st2" cx="34.3" cy="85" rx="2.6" ry="2.5"/>
			
			
				<circle class="st2" cx="43.5" cy="87.2" r="4.4"/>
			
			
				<circle class="st2" cx="47.6" cy="94.9" r="2.9"/>
			
			
				<circle class="st2" cx="56" cy="95.3" r="4.3"/>
			
			
				<circle class="st1" cx="31.1" cy="39.6" r="2.7"/>
			
			
				<circle class="st2" cx="58.2" cy="45.3" r="2.6"/>
			
			
				<circle class="st2" cx="40.1" cy="52.4" r="3"/>
			
			
				<circle class="st2" cx="54.8" cy="49.9" r="2.4"/>
			
			
				<circle class="st1" cx="52.1" cy="44.6" r="1.8"/>
			
			
				<circle class="st1" cx="54.4" cy="60.2" r="1.7"/>
			
			
				<circle class="st1" cx="59.5" cy="52.1" r="1.3"/>
			
			
				<circle class="st1" cx="59.3" cy="60.9" r="1.3"/>
			
			
				<circle class="st1" cx="58.7" cy="40.5" r="1.3"/>
			
			
				<ellipse class="st1" cx="58.8" cy="35.9" rx="1.7" ry="1.6"/>
			
			
				<circle class="st1" cx="58.7" cy="78.9" r="1.3"/>
			
			
				<circle class="st1" cx="39.7" cy="69.8" r="1.3"/>
			
			
				<circle class="st1" cx="32.1" cy="61.4" r="1.3"/>
			
			
				<circle class="st1" cx="37" cy="89.4" r="1.7"/>
			
			
				<circle class="st1" cx="31.7" cy="81.4" r="1.3"/>
			
			
				<circle class="st1" cx="50.8" cy="89.6" r="1.8"/>
			
			
				<circle class="st1" cx="45.5" cy="25.3" r="1.8"/>
			
			
				<circle class="st2" cx="46.6" cy="47.4" r="2.4"/>
			
			
				<circle class="st2" cx="45.4" cy="54.2" r="1.4"/>
			
			
				<circle class="st2" cx="41.5" cy="27.3" r="1.4"/>
			
			
				<circle class="st2" cx="31.5" cy="44.6" r="1.6"/>
			
			
				<circle class="st2" cx="36.2" cy="60.3" r="1.4"/>
			
			
				<circle class="st2" cx="41" cy="64.6" r="2.7"/>
			
			
				<circle class="st2" cx="51.6" cy="65" r="2.6"/>
			
			
				<circle class="st2" cx="43.5" cy="73.9" r="3"/>
			
			
				<circle class="st2" cx="48.9" cy="75.3" r="1.3"/>
			
			
				<circle class="st2" cx="49.9" cy="84.5" r="1.3"/>
			
			
				<circle class="st2" cx="37.3" cy="81.3" r="1.3"/>
			
			
				<circle class="st2" cx="30.4" cy="69.9" r="1.3"/>
			
			
				<circle class="st2" cx="53.3" cy="78.7" r="3"/>
			
			
				<ellipse class="st2" cx="58" cy="74" rx="2.4" ry="2.3"/>
			
			
				<circle class="st2" cx="59.1" cy="56.5" r="1.4"/>
			
			
				<circle class="st2" cx="57.2" cy="64.3" r="1.4"/>
			
			
				<circle class="st2" cx="54.4" cy="55.6" r="2"/>
			
			
				<circle class="st2" cx="50.4" cy="23.5" r="2"/>
			
		
		<path class="st2" d="m63.7 100.4c-0.6 0-1.1-0.5-1.1-1.1v-78.4c0-0.6 0.5-1.1 1.1-1.1s1.1 0.5 1.1 1.1v78.3c0.1 0.7-0.4 1.2-1.1 1.2z"/>
		
			
				<path class="st2" d="m66.6 95c-0.2-2.5 1.6-4.7 4.1-5 2.5-0.2 4.6 1.7 4.8 4.2s-1.6 4.7-4.1 5h-0.4c-2.2 0-4.2-1.8-4.4-4.2z"/>
				<path class="st2" d="m77.6 93.4c-1-2.3 0-5 2.3-6s4.9 0 5.9 2.4c1 2.3 0 5-2.3 6-0.6 0.3-1.2 0.4-1.8 0.4-1.7-0.1-3.4-1.1-4.1-2.8z"/>
				<path class="st2" d="m87.1 88.3c-1.7-1.9-1.5-4.8 0.3-6.5s4.6-1.6 6.3 0.3 1.5 4.8-0.3 6.5c-0.9 0.8-1.9 1.2-3 1.2-1.3 0-2.5-0.5-3.3-1.5z"/>
				<path class="st2" d="m94.5 80.7c-2.2-1.2-3-4-1.8-6.2s3.9-3 6-1.8c2.2 1.2 2.9 4 1.8 6.2-0.8 1.5-2.3 2.4-3.9 2.4-0.7-0.1-1.4-0.3-2.1-0.6z"/>
				<path class="st2" d="m99.3 70.4c-2.4-0.4-4.1-2.8-3.6-5.3v-0.1c0.4-2.5 2.7-4.2 5.1-3.8s4.1 2.8 3.7 5.3v0.1c-0.4 2.2-2.3 3.8-4.4 3.8h-0.8z"/>
				<path class="st2" d="m95.7 55.1c-0.4-2.5 1.2-4.9 3.6-5.3s4.7 1.3 5.1 3.8-1.2 4.9-3.6 5.3c-0.3 0-0.5 0.1-0.7 0.1-2.1-0.1-4-1.7-4.4-3.9z"/>
				<path class="st2" d="m92.3 46.5c-1.2-2.2-0.4-5 1.8-6.2s4.9-0.4 6 1.8c1.2 2.2 0.4 5-1.8 6.2-0.7 0.4-1.4 0.6-2.1 0.6-1.6 0-3.1-0.9-3.9-2.4z"/>
				<path class="st2" d="m87.3 38.8c-1.8-1.7-1.9-4.6-0.3-6.5 1.7-1.9 4.5-2 6.3-0.3s1.9 4.6 0.3 6.5c-0.9 1-2.1 1.5-3.3 1.5-1.1 0-2.2-0.4-3-1.2z"/>
				<path class="st2" d="m79.7 32.7c-2.3-1-3.3-3.7-2.3-6s3.6-3.4 5.9-2.4 3.3 3.7 2.3 6c-0.7 1.7-2.4 2.8-4.1 2.8-0.6 0-1.2-0.1-1.8-0.4z"/>
				<path class="st2" d="m71 29.8c-2.5-0.2-4.3-2.4-4.2-4.9 0.2-2.5 2.3-4.4 4.7-4.3 2.5 0.2 4.3 2.4 4.2 4.9-0.2 2.4-2.1 4.3-4.4 4.3h-0.3z"/>
				<path class="st2" d="m67.1 76.8c-0.1-1.4 0.8-2.6 2.1-2.7s2.5 0.8 2.6 2.2c0.2 1.4-0.8 2.6-2.1 2.7h-0.3c-1.1 0-2.1-1-2.3-2.2z"/>
				<path class="st2" d="m73.7 75.6c-0.7-1.2-0.3-2.7 0.9-3.4 1.1-0.7 2.6-0.3 3.3 0.9s0.3 2.7-0.9 3.4c-0.4 0.2-0.8 0.3-1.2 0.3-0.9 0-1.7-0.4-2.1-1.2z"/>
				<path class="st2" d="m79.1 71.8c-1.1-0.8-1.3-2.3-0.5-3.4s2.3-1.4 3.3-0.6c1.1 0.8 1.3 2.3 0.5 3.4-0.5 0.7-1.2 1-1.9 1-0.5 0-0.9-0.1-1.4-0.4z"/>
				<path class="st2" d="m82.7 65.9c-1.3-0.3-2.1-1.6-1.9-2.9 0.3-1.3 1.5-2.2 2.8-1.9s2.1 1.6 1.9 2.9v0.1c-0.2 1.2-1.2 2-2.3 2-0.2-0.1-0.3-0.1-0.5-0.2z"/>
				<path class="st2" d="m80.8 57.2c-0.3-1.3 0.5-2.7 1.8-3s2.6 0.5 2.9 1.9c0.3 1.3-0.5 2.6-1.8 2.9-0.2 0-0.4 0.1-0.5 0.1-1.2 0-2.2-0.8-2.4-1.9z"/>
				<path class="st2" d="m78.5 51.9c-0.8-1.1-0.6-2.6 0.5-3.4s2.6-0.6 3.3 0.5c0.8 1.1 0.6 2.6-0.5 3.5-0.4 0.3-0.9 0.5-1.4 0.5-0.7-0.1-1.5-0.4-1.9-1.1z"/>
				<path class="st2" d="m74.4 48.1c-1.1-0.7-1.6-2.2-0.9-3.4s2.1-1.6 3.3-0.9c1.1 0.7 1.6 2.2 0.9 3.4-0.4 0.8-1.2 1.3-2.1 1.3-0.4-0.1-0.8-0.2-1.2-0.4z"/>
				<path class="st2" d="m69.1 46.4c-1.3-0.1-2.3-1.3-2.2-2.7s1.3-2.4 2.6-2.3 2.3 1.3 2.2 2.7c-0.1 1.3-1.1 2.3-2.4 2.3h-0.2z"/>
			
			
				<path class="st1" d="m66.7 85.1c-0.2-2 1.2-3.9 3.2-4.1s3.7 1.3 3.9 3.3-1.2 3.9-3.2 4.1h-0.4c-1.7 0-3.3-1.4-3.5-3.3z"/>
				<path class="st1" d="m76.6 83.4c-1-1.8-0.4-4 1.3-5.1 1.7-1 3.9-0.4 4.9 1.4s0.4 4-1.3 5.1c-0.6 0.3-1.2 0.5-1.8 0.5-1.2 0-2.4-0.7-3.1-1.9z"/>
				<path class="st1" d="m84.5 77.8c-1.6-1.2-1.9-3.5-0.8-5.2 1.2-1.6 3.4-2 5-0.8s1.9 3.5 0.8 5.2c-0.7 1-1.8 1.5-2.9 1.5-0.7 0-1.4-0.3-2.1-0.7z"/>
				<path class="st1" d="m89.7 69c-1.9-0.4-3.2-2.4-2.8-4.4s2.3-3.3 4.3-2.9c1.9 0.4 3.2 2.4 2.8 4.4v0.1c-0.4 1.7-1.9 2.9-3.5 2.9-0.3 0-0.6 0-0.8-0.1z"/>
				<path class="st1" d="m86.9 55.9c-0.4-2 0.8-4 2.8-4.4 1.9-0.4 3.8 0.9 4.3 2.9 0.4 2-0.8 4-2.8 4.4-0.2 0-0.5 0.1-0.7 0.1-1.7-0.1-3.2-1.3-3.6-3z"/>
				<path class="st1" d="m83.8 47.9c-1.2-1.6-0.8-4 0.8-5.2s3.9-0.8 5 0.8c1.2 1.7 0.8 4-0.8 5.2-0.6 0.5-1.4 0.7-2.1 0.7-1.1 0-2.2-0.5-2.9-1.5z"/>
				<path class="st1" d="m78 42.1c-1.7-1-2.3-3.3-1.3-5.1s3.2-2.4 4.9-1.4 2.3 3.3 1.3 5.1c-0.7 1.2-1.9 1.9-3.1 1.9-0.6 0-1.2-0.2-1.8-0.5z"/>
				<path class="st1" d="m70.1 39.4c-2-0.2-3.4-2-3.2-4s1.9-3.5 3.9-3.3 3.4 2 3.2 4c-0.2 1.9-1.7 3.4-3.6 3.4-0.1 0-0.2 0-0.3-0.1z"/>
				<path class="st1" d="m67.3 70.9c-0.1-0.9 0.6-1.8 1.5-1.9s1.8 0.6 1.8 1.5c0.1 0.9-0.6 1.8-1.5 1.9h-0.2c-0.8 0-1.6-0.6-1.6-1.5z"/>
				<path class="st1" d="m71.5 70.2c-0.5-0.8-0.2-1.9 0.6-2.4s1.8-0.2 2.3 0.6 0.2 1.9-0.6 2.4c-0.3 0.2-0.6 0.2-0.8 0.2-0.6 0-1.2-0.3-1.5-0.8z"/>
				<path class="st1" d="m75.1 67.8c-0.7-0.6-0.9-1.6-0.4-2.4s1.6-0.9 2.3-0.4c0.7 0.6 0.9 1.6 0.4 2.4-0.3 0.5-0.8 0.7-1.4 0.7-0.2 0-0.6-0.1-0.9-0.3z"/>
				<path class="st1" d="m77.5 64c-0.9-0.2-1.5-1.1-1.3-2s1.1-1.5 2-1.4c0.9 0.2 1.5 1.1 1.3 2-0.2 0.8-0.9 1.4-1.6 1.4-0.2 0.1-0.3 0.1-0.4 0z"/>
				<path class="st1" d="m76.2 58.3c-0.2-0.9 0.4-1.8 1.3-2.1 0.9-0.2 1.8 0.4 2 1.3s-0.4 1.9-1.3 2.1h-0.4c-0.8 0.1-1.5-0.5-1.6-1.3z"/>
				<path class="st1" d="m74.7 55c-0.6-0.8-0.4-1.9 0.4-2.4 0.7-0.6 1.8-0.4 2.3 0.4 0.6 0.8 0.4 1.8-0.3 2.4-0.3 0.2-0.7 0.3-1 0.3-0.6 0-1.1-0.3-1.4-0.7z"/>
				<path class="st1" d="m72 52.5c-0.8-0.5-1.1-1.5-0.6-2.4 0.4-0.8 1.5-1.1 2.3-0.7 0.8 0.5 1.1 1.5 0.6 2.4-0.3 0.6-0.9 0.9-1.5 0.9-0.2 0-0.5 0-0.8-0.2z"/>
				<path class="st1" d="m68.7 51.4c-0.9-0.1-1.6-0.9-1.5-1.9 0.1-0.9 0.9-1.7 1.8-1.6s1.6 0.9 1.5 1.9c-0.1 0.9-0.8 1.6-1.7 1.6-0.1 0.1-0.1 0.1-0.1 0z"/>
			
		
	</g>
</svg>
