<svg version="1.1" id="Layer_1" xmlns="http://www.w3.org/2000/svg" xmlns:xlink="http://www.w3.org/1999/xlink" x="0px" y="0px"
	 width="100%" viewBox="0 0 512 512" enable-background="new 0 0 512 512" xml:space="preserve">
<path fill="#00429C" opacity="1.000000" stroke="none"
	d="
M0.999999,300.000000
	C1.000000,278.979095 1.000000,257.958221 1.412454,236.530609
	C2.204531,235.450851 2.808835,234.815445 2.928856,234.098938
	C4.068740,227.293854 4.689519,220.371262 6.278885,213.677002
	C16.288157,171.518921 35.667751,134.130859 64.652000,101.930435
	C76.951492,88.266174 90.966888,76.363289 106.173134,65.952812
	C127.251938,51.521873 149.931534,40.385117 174.421616,33.017120
	C194.704315,26.914948 215.343811,23.014320 236.609863,22.985867
	C238.260590,22.983658 239.916412,22.641113 241.560562,22.703131
	C245.099091,22.836609 248.631561,23.130724 252.070953,23.675194
	C250.521820,25.080591 249.129929,26.266060 247.605087,27.244263
	C232.811295,36.734661 219.335602,47.746616 208.074677,61.329834
	C169.196411,108.225769 157.419632,161.333527 172.302277,220.224045
	C178.722931,245.630585 191.075928,268.166290 208.386841,287.885284
	C210.820236,290.657196 211.235519,292.581146 208.247086,295.305573
	C203.829910,299.332489 199.831329,303.818604 195.363785,307.986877
	C192.843918,305.646484 190.684296,303.352905 188.371536,301.225830
	C183.232224,296.499084 178.075714,296.591003 173.002823,301.374847
	C170.483734,303.750397 167.953278,306.113861 165.307373,308.118896
	C149.977814,285.898010 131.916687,266.635468 111.718964,249.362076
	C110.193634,248.057587 107.041557,246.917175 105.646255,247.637817
	C103.894638,248.542511 102.263611,251.400345 102.155579,253.496445
	C101.265648,270.764343 99.429611,288.129303 100.454178,305.311340
	C101.607224,324.647766 105.439377,343.824402 107.967567,363.367249
	C106.240524,365.147552 104.652046,366.631226 102.774948,367.924316
	C83.649124,355.126953 63.756145,344.448700 42.600090,336.357391
	C31.016273,331.927032 18.991148,328.650604 7.112548,324.460449
	C6.028594,318.975708 5.127809,313.852936 3.916284,308.804779
	C3.197328,305.809113 1.988544,302.930969 0.999999,300.000000
z"/>
<path fill="#0178EF" opacity="1.000000" stroke="none"
	d="
M252.070953,23.675194
	C267.976166,15.069669 284.349609,8.276180 301.879181,4.513987
	C305.769501,3.679049 309.623169,2.673350 313.246857,1.373140
	C330.354218,1.000000 347.708466,1.000000 365.282867,1.372197
	C366.176971,2.152467 366.816010,2.838053 367.529968,2.927836
	C383.485168,4.934316 398.641998,9.807101 413.059906,16.654892
	C435.155487,27.149210 455.190094,40.757633 470.446625,60.173916
	C478.971252,71.022835 487.018127,82.416779 493.858429,94.378212
	C503.196289,110.707008 508.647339,128.616653 511.095673,147.359573
	C511.176544,147.978745 512.340759,148.456390 513.000000,149.000000
	C513.000000,165.687561 513.000000,182.375122 512.627075,199.284912
	C511.019409,204.970596 509.999054,210.493607 508.500580,215.883698
	C506.173065,224.255966 503.520111,232.537750 500.675415,240.994080
	C497.011536,247.529968 493.677338,253.929672 490.145844,260.603333
	C485.594940,267.524200 481.241333,274.171143 476.598389,280.982056
	C474.833984,283.070648 473.358887,284.995270 471.589050,287.068939
	C463.578522,294.823700 455.862701,302.429443 447.820648,310.140411
	C437.308838,316.836060 427.123260,323.426483 416.586792,330.080200
	C410.425201,332.750702 404.614532,335.357880 398.424377,337.970215
	C392.151001,339.655975 386.293182,341.478271 380.356354,342.990356
	C363.322205,347.328918 345.937805,348.188843 328.139832,347.743530
	C316.851898,345.726440 305.688751,344.667175 294.947357,341.944214
	C269.041473,335.377014 245.945938,323.088287 225.849655,305.380157
	C223.178925,303.026825 221.325821,302.931610 218.797516,305.638245
	C214.715897,310.007782 210.246384,314.014923 205.634430,318.033508
	C203.250046,316.029816 201.171967,314.167725 198.826752,312.169922
	C198.365463,311.987396 198.171280,311.940552 198.000061,311.942871
	C198.023026,311.992065 198.123459,311.950806 198.042847,311.631653
	C197.193024,310.244720 196.423782,309.176941 195.654541,308.109192
	C199.831329,303.818604 203.829910,299.332489 208.247086,295.305573
	C211.235519,292.581146 210.820236,290.657196 208.386841,287.885284
	C191.075928,268.166290 178.722931,245.630585 172.302277,220.224045
	C157.419632,161.333527 169.196411,108.225769 208.074677,61.329834
	C219.335602,47.746616 232.811295,36.734661 247.605087,27.244263
	C249.129929,26.266060 250.521820,25.080591 252.070953,23.675194
M229.549484,288.271484
	C233.494965,291.803467 237.048996,295.954254 241.462540,298.746338
	C252.734634,305.877289 264.389893,312.402527 276.299683,319.560516
	C276.825226,319.733612 277.350800,319.906738 278.351807,320.619537
	C330.896545,341.105713 381.673767,337.311066 428.183197,305.396271
	C480.212646,269.693726 502.363434,218.690231 496.746185,155.903091
	C495.412140,140.991760 491.724121,126.461784 485.103546,112.265839
	C484.801086,111.793510 484.498657,111.321182 484.082825,110.120667
	C476.793182,92.658684 466.279663,77.379868 452.595978,63.458054
	C448.335907,59.501488 444.323944,55.230846 439.776184,51.638439
	C405.885284,24.867193 367.507782,12.762691 324.307922,16.921663
	C280.712463,21.118719 244.683197,40.254738 217.058182,73.917015
	C190.057129,106.818985 178.337265,144.984604 181.818130,187.717560
	C183.759277,211.548019 190.691925,233.661407 202.633759,254.267532
	C209.837357,266.697632 218.491333,278.016785 229.549484,288.271484
z"/>
<path fill="#66891E" opacity="1.000000" stroke="none"
	d="
M246.000000,513.000000
	C235.979111,513.000000 225.958206,513.000000 215.532135,512.587158
	C214.289047,511.789001 213.487839,511.236328 212.607758,511.043213
	C199.341904,508.132629 185.926483,505.787750 172.825302,502.270477
	C154.294983,497.295624 137.014404,489.061920 120.660484,479.130432
	C111.738182,473.712067 103.503441,467.161499 95.256012,460.957642
	C124.981544,431.398468 154.517700,402.109772 183.719528,372.491425
	C188.026627,368.122864 190.750397,362.193298 194.433899,357.238068
	C211.315720,392.205322 221.446716,428.786499 225.522202,467.234985
	C226.244705,466.850189 226.653244,466.772705 226.737610,466.564117
	C227.173126,465.487549 227.542099,464.382782 227.904633,463.278137
	C234.274017,443.870972 243.291779,425.758118 255.233047,409.213715
	C260.347168,402.128174 266.387390,395.711090 272.054077,389.410278
	C271.877258,391.300476 271.782104,392.804230 271.409454,394.235748
	C267.134796,410.656525 268.863556,426.560852 276.231903,441.685699
	C279.173096,447.723022 283.404480,453.131775 287.018188,459.218567
	C285.316620,465.118469 283.645355,470.626465 281.828491,476.425720
	C280.400452,478.022278 279.118652,479.328156 277.835541,480.632721
	C267.223846,491.421967 256.611877,502.210938 246.000000,513.000000
z"/>
<path fill="#80BE1C" opacity="1.000000" stroke="none"
	d="
M246.468567,513.000000
	C256.611877,502.210938 267.223846,491.421967 277.835541,480.632721
	C279.118652,479.328156 280.400452,478.022278 282.131134,476.266785
	C285.959564,471.740234 289.339691,467.663879 292.770935,463.084290
	C292.874451,444.096893 292.912170,425.612671 292.987701,407.128601
	C293.012146,401.147064 294.870087,399.023041 299.921539,398.992584
	C305.019928,398.961823 306.988098,401.106354 307.007751,406.972839
	C307.049622,419.463013 307.004425,431.953491 307.044922,444.443665
	C307.050293,446.095551 307.348114,447.746552 307.510529,449.397949
	C307.983459,449.551300 308.456390,449.704620 308.929321,449.857941
	C312.667023,445.700653 316.404694,441.543365 320.483765,437.190735
	C321.373535,436.639526 322.005280,436.367279 322.458099,435.915588
	C334.473480,423.929504 346.482391,411.936829 358.442291,399.895538
	C359.198975,399.133667 359.549866,397.968781 360.434967,396.910706
	C364.041840,395.543610 365.040588,393.027344 365.008545,389.687347
	C364.919006,380.361298 364.941437,371.033569 364.997559,361.706970
	C365.030823,356.180450 366.992615,354.050964 371.846771,353.993835
	C376.965546,353.933594 378.939667,356.087524 379.010254,361.900665
	C379.052704,365.397766 378.971466,368.896759 379.041992,372.392944
	C379.075653,374.062256 379.333344,375.727020 379.489594,377.393860
	C380.009186,377.624664 380.528778,377.855469 381.048370,378.086273
	C385.010071,373.874725 388.971771,369.663147 393.185303,365.194763
	C401.594482,356.630890 409.751770,348.323853 418.205200,339.854980
	C422.048828,336.249451 425.563324,332.770905 429.153351,329.372131
	C432.466217,326.235779 437.505432,326.032257 440.251801,328.826355
	C442.997375,331.619629 442.632050,336.503082 439.579834,339.957825
	C437.973755,341.775665 436.606384,343.804382 434.837341,345.850098
	C427.702026,352.628418 420.860687,359.294495 413.850403,366.252441
	C406.306030,373.593964 398.930634,380.643646 391.555206,387.693298
	C391.758667,388.136719 391.962097,388.580139 392.165558,389.023560
	C399.897003,389.023560 407.630859,388.900757 415.359253,389.054260
	C425.310455,389.251923 435.260132,389.604187 445.204407,390.031036
	C448.668884,390.179779 450.608368,392.261200 450.982758,395.738525
	C451.583801,401.321198 449.167206,403.990631 443.229187,404.002533
	C422.441559,404.044189 401.652802,404.129425 380.866882,403.935608
	C376.362854,403.893585 373.145508,405.246063 370.649658,409.227203
	C359.235291,420.550079 348.126801,431.756714 336.851196,443.256470
	C331.316650,448.601593 325.949188,453.653534 319.546783,459.679596
	C322.746765,459.840546 324.330719,459.987061 325.914886,459.989349
	C338.881073,460.008087 351.847321,459.997955 364.813538,460.001617
	C367.639343,460.002411 370.474426,459.881866 373.288818,460.067169
	C377.857635,460.367950 381.032776,463.634705 380.926941,467.668060
	C380.825684,471.527130 377.777222,474.533936 373.442444,474.934540
	C371.957916,475.071716 370.452576,474.995575 368.956726,474.995819
	C349.008698,474.998993 329.060608,475.018585 309.112640,474.978943
	C305.764343,474.972290 302.664673,475.127075 301.507080,479.258362
	C300.609009,479.533691 299.928833,479.707550 299.500397,480.134186
	C289.493073,490.098816 279.498108,500.076050 269.558105,510.107635
	C268.818756,510.853821 268.509277,512.025879 268.000000,513.000000
	C260.979065,513.000000 253.958099,513.000000 246.468567,513.000000
z"/>
<path fill="#80CE01" opacity="1.000000" stroke="none"
	d="
M370.955536,409.110931
	C373.145508,405.246063 376.362854,403.893585 380.866882,403.935608
	C401.652802,404.129425 422.441559,404.044189 443.229187,404.002533
	C449.167206,403.990631 451.583801,401.321198 450.982758,395.738525
	C450.608368,392.261200 448.668884,390.179779 445.204407,390.031036
	C435.260132,389.604187 425.310455,389.251923 415.359253,389.054260
	C407.630859,388.900757 399.897003,389.023560 392.165558,389.023560
	C391.962097,388.580139 391.758667,388.136719 391.555206,387.693298
	C398.930634,380.643646 406.306030,373.593964 414.265869,366.301636
	C415.833984,365.944153 416.852631,365.956055 417.796021,365.695435
	C430.307709,362.239349 442.992767,361.149414 455.857361,363.050873
	C460.934326,363.801331 465.959656,364.901276 471.394165,365.906097
	C481.699585,369.200989 491.146973,373.335938 499.422333,379.874268
	C503.850616,383.373047 508.467957,386.632538 513.000000,390.000000
	C513.000000,393.030609 513.000000,396.061188 513.000000,399.545898
	C511.215515,401.293030 509.052002,402.276886 507.705688,403.927338
	C495.448242,418.953979 479.440887,427.806732 461.061005,433.042511
	C449.594208,436.309021 437.916901,436.139465 425.512146,435.621460
	C422.870209,434.871948 420.923889,434.432648 418.965698,434.054840
	C400.492523,430.491028 384.406494,422.338318 370.955536,409.110931
M467.548370,405.822632
	C473.224243,411.657806 481.517822,411.780609 486.362152,406.101196
	C490.653595,401.070007 489.613892,392.844360 484.178345,388.823517
	C480.495453,386.099121 473.119049,386.195282 469.593994,389.013580
	C464.725708,392.905792 463.865723,398.557190 467.548370,405.822632
z"/>
<path fill="#7FCE01" opacity="1.000000" stroke="none"
	d="
M435.131287,345.737915
	C436.606384,343.804382 437.973755,341.775665 439.579834,339.957825
	C442.632050,336.503082 442.997375,331.619629 440.251801,328.826355
	C437.505432,326.032257 432.466217,326.235779 429.153351,329.372131
	C425.563324,332.770905 422.048828,336.249451 418.072937,339.469299
	C417.408875,336.169220 417.173248,333.093048 416.937683,330.016876
	C427.123260,323.426483 437.308838,316.836060 448.039368,310.382690
	C449.005981,311.230865 449.423035,311.944763 449.850006,312.652740
	C454.147125,319.777863 460.635315,321.942108 468.548462,320.961426
	C473.979523,320.288330 480.365570,315.006287 481.556915,309.337311
	C483.058228,302.193298 482.262909,295.456268 475.969269,290.471558
	C474.556183,289.352356 473.242981,288.107147 471.883789,286.919922
	C473.358887,284.995270 474.833984,283.070648 476.848022,281.255432
	C481.602936,284.252991 485.997131,284.941620 490.388428,281.938904
	C494.913452,278.844788 497.282715,274.342346 495.748322,269.034637
	C494.835205,265.875977 492.202637,263.214417 490.343109,260.329376
	C493.677338,253.929672 497.011536,247.529968 501.117310,241.050934
	C505.592590,241.647736 509.296295,242.323868 513.000000,243.000000
	C513.000000,254.020889 513.000000,265.041779 512.637085,276.305084
	C511.850800,277.373322 511.249207,278.154663 511.030273,279.031555
	C506.704285,296.358490 498.488007,311.377716 484.621002,323.322449
	C470.156708,335.773865 453.977570,343.690002 435.131287,345.737915
z"/>
<path fill="#02439A" opacity="1.000000" stroke="none"
	d="
M268.449982,513.000000
	C268.509277,512.025879 268.818756,510.853821 269.558105,510.107635
	C279.498108,500.076050 289.493073,490.098816 299.500397,480.134186
	C299.928833,479.707550 300.609009,479.533691 301.680603,479.540100
	C310.189606,487.305511 319.527374,492.455444 329.867950,495.902435
	C331.352295,496.397217 332.731262,497.208160 334.158997,497.872742
	C325.829651,500.277954 317.581024,503.028442 309.150238,504.999542
	C298.982483,507.376740 288.657776,509.080719 278.411072,511.126648
	C277.856384,511.237396 277.394775,511.814270 276.944916,512.587097
	C274.299988,513.000000 271.599976,513.000000 268.449982,513.000000
z"/>
<path fill="#66891E" opacity="1.000000" stroke="none"
	d="
M52.834709,419.008301
	C46.871120,410.616150 40.357094,402.555359 35.062599,393.760437
	C25.122217,377.247955 17.071617,359.784882 11.615674,341.219727
	C10.092865,336.038025 8.611485,330.844147 7.138062,325.254822
	C18.991148,328.650604 31.016273,331.927032 42.600090,336.357391
	C63.756145,344.448700 83.649124,355.126953 102.624344,368.218506
	C86.119804,385.471558 69.477257,402.239929 52.834709,419.008301
z"/>
<path fill="#66891F" opacity="1.000000" stroke="none"
	d="
M108.106125,363.070557
	C105.439377,343.824402 101.607224,324.647766 100.454178,305.311340
	C99.429611,288.129303 101.265648,270.764343 102.155579,253.496445
	C102.263611,251.400345 103.894638,248.542511 105.646255,247.637817
	C107.041557,246.917175 110.193634,248.057587 111.718964,249.362076
	C131.916687,266.635468 149.977814,285.898010 165.204117,308.495697
	C164.864273,312.431580 164.507065,315.626770 163.726242,318.861694
	C155.285568,319.357147 148.720596,322.830078 143.098648,328.426971
	C131.466644,340.007111 119.773888,351.526276 108.106125,363.070557
z"/>
<path fill="#FE4343" opacity="1.000000" stroke="none"
	d="
M107.967560,363.367249
	C119.773888,351.526276 131.466644,340.007111 143.098648,328.426971
	C148.720596,322.830078 155.285568,319.357147 163.957108,319.100525
	C169.098511,323.851959 173.585403,328.404297 178.055725,332.956451
	C178.039124,332.956268 178.008133,332.956665 178.123718,333.169434
	C178.432404,333.651001 178.679947,333.853058 179.036713,334.240601
	C179.125854,334.661346 179.160187,334.829926 178.755173,334.993652
	C170.293930,334.985474 163.877106,338.740631 158.459030,344.130951
	C128.970444,373.468414 99.592598,402.917175 70.195213,432.346191
	C69.029968,433.512695 68.053024,434.867279 66.988342,436.134247
	C62.320881,430.658936 57.653431,425.183624 52.910343,419.358307
	C69.477257,402.239929 86.119804,385.471558 102.912964,368.409058
	C104.652046,366.631226 106.240524,365.147552 107.967560,363.367249
z"/>
<path fill="#FCA902" opacity="1.000000" stroke="none"
	d="
M178.072311,332.956635
	C173.585403,328.404297 169.098511,323.851959 164.380737,319.060791
	C164.507065,315.626770 164.864273,312.431580 165.324707,308.859619
	C167.953278,306.113861 170.483734,303.750397 173.002823,301.374847
	C178.075714,296.591003 183.232224,296.499084 188.371536,301.225830
	C190.684296,303.352905 192.843918,305.646484 195.363800,307.986877
	C196.423782,309.176941 197.193024,310.244720 197.632477,311.671204
	C187.261505,312.788971 178.125748,322.730621 178.072311,332.956635
z"/>
<path fill="#A3E72D" opacity="1.000000" stroke="none"
	d="
M485.156952,112.833160
	C491.724121,126.461784 495.412140,140.991760 496.746185,155.903091
	C502.363434,218.690231 480.212646,269.693726 428.183197,305.396271
	C381.673767,337.311066 330.896545,341.105713 278.132751,319.884979
	C279.197327,311.494293 279.607056,303.560974 281.930603,296.234650
	C288.554108,275.350525 300.645844,257.332581 313.651306,239.986496
	C319.710236,231.905380 326.600800,224.447754 333.321747,216.951859
	C334.295746,218.180725 335.062408,219.165253 335.950989,220.464874
	C343.684021,230.594559 355.551208,233.645615 366.417389,228.367249
	C383.946838,219.986526 385.998932,197.926041 370.648315,185.494370
	C369.735779,183.137207 368.890778,181.111313 368.331451,178.909500
	C370.546265,177.157562 372.564087,175.677597 374.390686,173.990524
	C391.525208,158.164948 409.755920,143.743484 429.839813,131.848969
	C446.920074,121.733322 464.347473,112.264885 485.156952,112.833160
M425.364868,266.793793
	C425.524139,266.374268 425.683411,265.954773 425.972443,264.768677
	C425.980255,262.237122 425.988037,259.705536 426.594238,256.884857
	C427.713287,256.215240 428.832336,255.545654 430.621918,255.197052
	C436.470825,257.967163 438.360138,257.448608 443.698395,251.809647
	C452.255524,249.327072 456.827576,243.747162 456.422119,236.281235
	C456.037659,229.202957 450.848053,223.031006 443.783142,222.278824
	C439.908020,221.866226 435.893158,222.766083 431.312256,222.778915
	C428.350922,220.285156 425.384918,217.775146 421.088959,219.571976
	C417.299133,221.157120 416.423309,224.430984 415.602844,228.398407
	C411.353821,231.630386 407.104767,234.862381 402.059204,238.263718
	C397.046417,237.964767 393.016571,239.261429 390.969818,245.032349
	C379.465027,253.484528 377.584381,267.215759 386.889160,278.537933
	C395.666809,287.101013 406.107971,288.353119 416.474274,281.725159
	C421.204224,277.890778 425.359192,273.724762 425.017578,267.008881
	C425.017578,267.008881 424.957764,267.021637 425.364868,266.793793
z"/>
<path fill="#00D1FB" opacity="1.000000" stroke="none"
	d="
M452.885437,64.051857
	C466.279663,77.379868 476.793182,92.658684 483.745880,110.460098
	C460.626282,103.815926 437.429108,101.929871 413.769196,104.769440
	C394.551025,107.075920 376.499847,113.066689 358.860535,120.863335
	C362.333221,110.554382 359.191040,106.294556 348.772919,107.098457
	C339.379700,97.011147 328.400452,90.335640 314.921021,87.389458
	C310.025452,82.803955 307.986908,82.648422 301.675781,86.071213
	C292.091675,86.619942 285.986023,92.610870 286.004547,100.969009
	C286.022919,109.262421 292.418884,115.653679 301.339417,115.942245
	C310.141144,116.226959 317.800903,119.172279 324.375793,125.385315
	C323.704498,132.677216 325.739258,135.141846 332.889832,136.383713
	C333.018066,137.138184 333.082184,137.570404 332.873230,138.204712
	C330.663116,139.977234 328.669312,141.483032 326.797485,143.127670
	C291.327728,174.292542 271.743774,213.303589 268.819366,260.547333
	C267.582642,280.526703 270.395966,300.007843 275.891876,319.170105
	C264.389893,312.402527 252.734634,305.877289 241.462540,298.746338
	C237.048996,295.954254 233.494965,291.803467 229.264404,287.690216
	C227.636932,283.713440 226.331055,280.302979 224.946457,276.924774
	C212.043686,245.444061 208.637024,213.017868 215.636444,179.674088
	C223.379959,142.785538 241.450287,111.971008 270.110199,87.294533
	C299.204865,62.243763 333.077362,49.256908 371.099274,47.131542
	C391.521301,45.989983 411.580841,49.137894 430.967346,55.863548
	C438.333710,58.419128 445.582855,61.312462 452.885437,64.051857
z"/>
<path fill="#00C1FB" opacity="1.000000" stroke="none"
	d="
M452.740723,63.754955
	C445.582855,61.312462 438.333710,58.419128 430.967346,55.863548
	C411.580841,49.137894 391.521301,45.989983 371.099274,47.131542
	C333.077362,49.256908 299.204865,62.243763 270.110199,87.294533
	C241.450287,111.971008 223.379959,142.785538 215.636444,179.674088
	C208.637024,213.017868 212.043686,245.444061 224.946457,276.924774
	C226.331055,280.302979 227.636932,283.713440 229.010315,287.468872
	C218.491333,278.016785 209.837357,266.697632 202.633759,254.267532
	C190.691925,233.661407 183.759277,211.548019 181.818130,187.717560
	C178.337265,144.984604 190.057129,106.818985 217.058182,73.917015
	C244.683197,40.254738 280.712463,21.118719 324.307922,16.921663
	C367.507782,12.762691 405.885284,24.867193 439.776184,51.638439
	C444.323944,55.230846 448.335907,59.501488 452.740723,63.754955
z"/>
<path fill="#01439B" opacity="1.000000" stroke="none"
	d="
M360.089539,396.991394
	C359.549866,397.968781 359.198975,399.133667 358.442291,399.895538
	C346.482391,411.936829 334.473480,423.929504 322.458099,435.915588
	C322.005280,436.367279 321.373535,436.639526 320.703156,436.790161
	C327.843475,407.820099 320.977173,383.255249 298.679169,363.358276
	C294.261566,359.416321 291.667786,359.278870 288.253387,364.001831
	C282.732513,371.638580 277.989960,379.838013 272.674500,387.924622
	C272.281860,388.370300 272.133484,388.691162 271.994568,389.010925
	C272.003998,389.009766 272.006805,388.990295 272.006836,388.990295
	C266.387390,395.711090 260.347168,402.128174 255.233047,409.213715
	C243.291779,425.758118 234.274017,443.870972 227.904633,463.278137
	C227.542099,464.382782 227.173126,465.487549 226.737610,466.564117
	C226.653244,466.772705 226.244705,466.850189 225.522202,467.234985
	C221.446716,428.786499 211.315720,392.205322 194.458313,356.843414
	C194.547363,354.071350 194.839218,351.946045 195.559311,349.850037
	C204.316315,351.878632 208.097534,345.347198 212.742935,340.727753
	C217.491730,336.005493 217.390366,330.783569 212.925629,325.798615
	C210.626358,323.231445 208.270813,320.714691 205.940704,318.175140
	C210.246384,314.014923 214.715897,310.007782 218.797516,305.638245
	C221.325821,302.931610 223.178925,303.026825 225.849655,305.380157
	C245.945938,323.088287 269.041473,335.377014 294.947357,341.944214
	C305.688751,344.667175 316.851898,345.726440 328.177185,348.153168
	C333.883606,368.220886 344.277496,384.378876 360.089539,396.991394
z"/>
<path fill="#80CF01" opacity="1.000000" stroke="none"
	d="
M276.095764,319.365295
	C270.395966,300.007843 267.582642,280.526703 268.819366,260.547333
	C271.743774,213.303589 291.327728,174.292542 326.797485,143.127670
	C328.669312,141.483032 330.663116,139.977234 333.112000,138.462250
	C334.150513,140.349457 334.677155,142.181213 334.934082,144.243469
	C327.776794,149.384644 328.286285,155.023087 335.988129,159.506470
	C336.026093,165.665390 336.056732,171.360352 335.835022,177.293106
	C328.132782,181.496429 327.911285,187.163681 334.848145,192.488159
	C330.081451,200.498383 330.052063,208.501328 333.114410,216.707520
	C326.600800,224.447754 319.710236,231.905380 313.651306,239.986496
	C300.645844,257.332581 288.554108,275.350525 281.930603,296.234650
	C279.607056,303.560974 279.197327,311.494293 277.895020,319.615143
	C277.350800,319.906738 276.825226,319.733612 276.095764,319.365295
z"/>
<path fill="#80CF02" opacity="1.000000" stroke="none"
	d="
M359.083527,121.255081
	C376.499847,113.066689 394.551025,107.075920 413.769196,104.769440
	C437.429108,101.929871 460.626282,103.815926 483.802582,110.824188
	C484.498657,111.321182 484.801086,111.793510 485.130249,112.549500
	C464.347473,112.264885 446.920074,121.733322 429.839813,131.848969
	C409.755920,143.743484 391.525208,158.164948 374.390686,173.990524
	C372.564087,175.677597 370.546265,177.157562 368.055115,178.804749
	C366.994659,178.569809 366.496216,178.263748 365.998291,177.493866
	C365.953156,170.994934 365.907471,164.959808 366.073059,158.638763
	C372.080383,153.311646 371.871857,149.347900 365.482117,143.499512
	C363.221771,135.862091 361.004974,128.654877 358.874573,121.418709
	C358.960907,121.389771 359.083527,121.255081 359.083527,121.255081
z"/>
<path fill="#7FCE02" opacity="1.000000" stroke="none"
	d="
M360.434967,396.910706
	C344.277496,384.378876 333.883606,368.220886 328.493774,348.354370
	C345.937805,348.188843 363.322205,347.328918 380.356354,342.990356
	C386.293182,341.478271 392.151001,339.655975 398.382538,338.377258
	C396.791260,347.669922 394.862335,356.560730 392.933441,365.451569
	C388.971771,369.663147 385.010071,373.874725 381.048370,378.086273
	C380.528778,377.855469 380.009186,377.624664 379.489594,377.393860
	C379.333344,375.727020 379.075653,374.062256 379.041992,372.392944
	C378.971466,368.896759 379.052704,365.397766 379.010254,361.900665
	C378.939667,356.087524 376.965546,353.933594 371.846771,353.993835
	C366.992615,354.050964 365.030823,356.180450 364.997559,361.706970
	C364.941437,371.033569 364.919006,380.361298 365.008545,389.687347
	C365.040588,393.027344 364.041840,395.543610 360.434967,396.910706
z"/>
<path fill="#FDC043" opacity="1.000000" stroke="none"
	d="
M205.634430,318.033508
	C208.270813,320.714691 210.626358,323.231445 212.925629,325.798615
	C217.390366,330.783569 217.491730,336.005493 212.742935,340.727753
	C208.097534,345.347198 204.316315,351.878632 195.325928,349.617645
	C189.507690,344.570099 184.351105,339.784302 179.194519,334.998505
	C179.160187,334.829926 179.125854,334.661346 178.920242,334.028320
	C178.567459,333.281616 178.320526,333.079224 178.008133,332.956665
	C178.008133,332.956665 178.039124,332.956268 178.055725,332.956451
	C178.125748,322.730621 187.261505,312.788971 197.713089,311.990356
	C198.123459,311.950806 198.023026,311.992065 198.110947,312.070160
	C198.497208,312.200714 198.795532,312.253174 199.093872,312.305634
	C201.171967,314.167725 203.250046,316.029816 205.634430,318.033508
z"/>
<path fill="#6DB001" opacity="1.000000" stroke="none"
	d="
M471.589050,287.068939
	C473.242981,288.107147 474.556183,289.352356 475.969269,290.471558
	C482.262909,295.456268 483.058228,302.193298 481.556915,309.337311
	C480.365570,315.006287 473.979523,320.288330 468.548462,320.961426
	C460.635315,321.942108 454.147125,319.777863 449.850006,312.652740
	C449.423035,311.944763 449.005981,311.230865 448.365601,310.277435
	C455.862701,302.429443 463.578522,294.823700 471.589050,287.068939
z"/>
<path fill="#034699" opacity="1.000000" stroke="none"
	d="
M393.185303,365.194733
	C394.862335,356.560730 396.791260,347.669922 398.762024,338.372101
	C404.614532,335.357880 410.425201,332.750702 416.586792,330.080200
	C417.173248,333.093048 417.408875,336.169220 417.776764,339.631104
	C409.751770,348.323853 401.594482,356.630890 393.185303,365.194733
z"/>
<path fill="#6CB003" opacity="1.000000" stroke="none"
	d="
M490.145844,260.603333
	C492.202637,263.214417 494.835205,265.875977 495.748322,269.034637
	C497.282715,274.342346 494.913452,278.844788 490.388428,281.938904
	C485.997131,284.941620 481.602936,284.252991 477.137329,281.091431
	C481.241333,274.171143 485.594940,267.524200 490.145844,260.603333
z"/>
<path fill="#FCA902" opacity="1.000000" stroke="none"
	d="
M198.826752,312.169922
	C198.795532,312.253174 198.497208,312.200714 198.087982,312.020966
	C198.171280,311.940552 198.365463,311.987396 198.826752,312.169922
z"/>
<path fill="#FF5757" opacity="1.000000" stroke="none"
	d="
M178.755173,334.993652
	C184.351105,339.784302 189.507690,344.570099 194.897675,349.588318
	C194.839218,351.946045 194.547363,354.071350 194.231110,356.591339
	C190.750397,362.193298 188.026627,368.122864 183.719528,372.491425
	C154.517700,402.109772 124.981544,431.398468 95.256020,460.957642
	C91.965485,458.910034 88.765717,456.926697 86.020775,454.441071
	C79.645523,448.668030 73.489799,442.652588 67.116722,436.434814
	C68.053024,434.867279 69.029968,433.512695 70.195213,432.346191
	C99.592598,402.917175 128.970444,373.468414 158.459030,344.130951
	C163.877106,338.740631 170.293930,334.985474 178.755173,334.993652
z"/>
<path fill="#7FCE01" opacity="1.000000" stroke="none"
	d="
M272.918732,387.799805
	C277.989960,379.838013 282.732513,371.638580 288.253387,364.001831
	C291.667786,359.278870 294.261566,359.416321 298.679169,363.358276
	C320.977173,383.255249 327.843475,407.820099 320.361755,436.985504
	C316.404694,441.543365 312.667023,445.700653 308.929321,449.857941
	C308.456390,449.704620 307.983459,449.551300 307.510529,449.397949
	C307.348114,447.746552 307.050293,446.095551 307.044922,444.443665
	C307.004425,431.953491 307.049622,419.463013 307.007751,406.972839
	C306.988098,401.106354 305.019928,398.961823 299.921539,398.992584
	C294.870087,399.023041 293.012146,401.147064 292.987701,407.128601
	C292.912170,425.612671 292.874451,444.096893 292.521210,462.849182
	C290.496429,461.687103 288.772491,460.256897 287.048553,458.826660
	C283.404480,453.131775 279.173096,447.723022 276.231903,441.685699
	C268.863556,426.560852 267.134796,410.656525 271.409454,394.235748
	C271.782104,392.804230 271.877258,391.300476 272.054077,389.410278
	C272.006805,388.990295 272.003998,389.009766 272.237122,388.888458
	C272.619720,388.444702 272.769226,388.122253 272.918732,387.799805
z"/>
<path fill="#094B91" opacity="1.000000" stroke="none"
	d="
M287.018188,459.218567
	C288.772491,460.256897 290.496429,461.687103 292.470093,463.352448
	C289.339691,467.663879 285.959564,471.740234 282.276733,475.975525
	C283.645355,470.626465 285.316620,465.118469 287.018188,459.218567
z"/>
<path fill="#80CF01" opacity="1.000000" stroke="none"
	d="
M334.573181,497.925659
	C332.731262,497.208160 331.352295,496.397217 329.867950,495.902435
	C319.527374,492.455444 310.189606,487.305511 302.015808,479.556366
	C302.664673,475.127075 305.764343,474.972290 309.112640,474.978943
	C329.060608,475.018585 349.008698,474.998993 368.956726,474.995819
	C370.452576,474.995575 371.957916,475.071716 373.442444,474.934540
	C377.777222,474.533936 380.825684,471.527130 380.926941,467.668060
	C381.032776,463.634705 377.857635,460.367950 373.288818,460.067169
	C370.474426,459.881866 367.639343,460.002411 364.813538,460.001617
	C351.847321,459.997955 338.881073,460.008087 325.914886,459.989349
	C324.330719,459.987061 322.746765,459.840546 319.546783,459.679596
	C325.949188,453.653534 331.316650,448.601593 337.282379,443.275330
	C339.202057,442.903931 340.554199,442.954803 341.840332,442.687836
	C363.140747,438.266052 382.770905,442.178802 400.805298,454.327728
	C401.982758,455.120941 403.470612,455.453491 404.814056,456.000366
	C406.752747,458.033966 408.679382,460.079224 410.632843,462.098541
	C413.820282,465.393372 413.978851,468.958527 410.931854,472.534607
	C398.946045,486.601532 383.806000,495.413666 365.718689,498.900757
	C355.479156,500.874817 345.170715,500.319489 334.573181,497.925659
z"/>
<path fill="#02449A" opacity="1.000000" stroke="none"
	d="
M404.982300,455.701569
	C403.470612,455.453491 401.982758,455.120941 400.805298,454.327728
	C382.770905,442.178802 363.140747,438.266052 341.840332,442.687836
	C340.554199,442.954803 339.202057,442.903931 337.449463,442.982147
	C348.126801,431.756714 359.235291,420.550079 370.649658,409.227203
	C384.406494,422.338318 400.492523,430.491028 418.965698,434.054840
	C420.923889,434.432648 422.870209,434.871948 425.063263,435.595520
	C418.586487,442.406494 411.868500,448.904633 404.982300,455.701569
z"/>
<path fill="#02449A" opacity="1.000000" stroke="none"
	d="
M484.620972,323.322449
	C482.033722,333.313873 479.259552,343.411438 476.163177,353.409271
	C474.909546,357.457275 472.952972,361.287598 471.162384,365.529480
	C465.959656,364.901276 460.934326,363.801331 455.857361,363.050873
	C442.992767,361.149414 430.307709,362.239349 417.796021,365.695435
	C416.852631,365.956055 415.833984,365.944153 414.434814,366.009766
	C420.860687,359.294495 427.702026,352.628418 434.837341,345.850128
	C453.977570,343.690002 470.156708,335.773865 484.620972,323.322449
z"/>
<path fill="#6DB000" opacity="1.000000" stroke="none"
	d="
M467.341370,405.500244
	C463.865723,398.557190 464.725708,392.905792 469.593994,389.013580
	C473.119049,386.195282 480.495453,386.099121 484.178345,388.823517
	C489.613892,392.844360 490.653595,401.070007 486.362152,406.101196
	C481.517822,411.780609 473.224243,411.657806 467.341370,405.500244
z"/>
<path fill="#FCA902" opacity="1.000000" stroke="none"
	d="
M178.123718,333.169434
	C178.320526,333.079224 178.567459,333.281616 178.865417,333.776123
	C178.679947,333.853058 178.432404,333.651001 178.123718,333.169434
z"/>
<path fill="#FE4543" opacity="1.000000" stroke="none"
	d="
M366.064697,228.490860
	C355.551208,233.645615 343.684021,230.594559 336.009979,219.984589
	C336.019562,212.817490 336.092010,206.445740 336.361206,200.339996
	C340.764282,210.616470 349.513916,214.840271 357.503632,209.984772
	C360.858887,207.945724 363.092163,204.060516 365.895599,201.478882
	C365.992035,210.792389 366.028351,219.641632 366.064697,228.490860
z"/>
<path fill="#FE7B79" opacity="1.000000" stroke="none"
	d="
M416.229431,228.082367
	C416.423309,224.430984 417.299133,221.157120 421.088959,219.571976
	C425.384918,217.775146 428.350922,220.285156 431.784973,223.227982
	C438.125519,232.180008 443.338013,240.932220 442.957458,251.811508
	C438.360138,257.448608 436.470825,257.967163 430.125244,254.714539
	C428.873993,251.704529 427.844635,249.222626 427.416504,246.641006
	C426.137726,238.930420 420.028534,234.219070 416.229431,228.082367
z"/>
<path fill="#FE7A79" opacity="1.000000" stroke="none"
	d="
M365.997742,177.957672
	C366.496216,178.263748 366.994659,178.569809 367.769470,178.980652
	C368.890778,181.111313 369.735779,183.137207 370.470978,185.776108
	C368.887482,188.260361 367.413757,190.131622 365.565063,192.074036
	C355.597900,195.873871 345.889374,195.190689 335.997620,192.719727
	C335.638733,192.255478 335.356598,192.139496 335.010101,192.180161
	C327.911285,187.163681 328.132782,181.496429 336.222412,177.312134
	C345.119781,179.637619 353.348785,181.301010 361.755371,177.445602
	C362.859070,176.939423 364.568726,177.754532 365.997742,177.957672
z"/>
<path fill="#FE7A79" opacity="1.000000" stroke="none"
	d="
M391.558197,244.732498
	C393.016571,239.261429 397.046417,237.964767 402.560150,238.504440
	C408.212921,247.990784 416.477966,253.361969 425.995850,257.173981
	C425.988037,259.705536 425.980255,262.237122 425.713959,265.266357
	C425.289551,266.183258 425.123657,266.602448 424.957764,267.021637
	C424.957764,267.021637 425.017578,267.008881 424.665619,267.104523
	C422.248871,267.843140 420.184052,268.486115 417.739746,269.074280
	C415.653076,268.394348 413.666382,268.135498 412.286346,267.081940
	C405.731567,262.077759 399.342072,256.857086 392.898376,251.330109
	C392.454742,248.875336 392.006470,246.803925 391.558197,244.732498
z"/>
<path fill="#678B1E" opacity="1.000000" stroke="none"
	d="
M365.940033,192.002884
	C367.413757,190.131622 368.887482,188.260361 370.538513,186.107361
	C385.998932,197.926041 383.946838,219.986526 366.417358,228.367249
	C366.028351,219.641632 365.992035,210.792389 365.953979,201.032043
	C365.948212,197.414902 365.944122,194.708893 365.940033,192.002884
z"/>
<path fill="#FE5957" opacity="1.000000" stroke="none"
	d="
M443.327942,251.810577
	C443.338013,240.932220 438.125519,232.180008 432.099487,223.375610
	C435.893158,222.766083 439.908020,221.866226 443.783142,222.278824
	C450.848053,223.031006 456.037659,229.202957 456.422119,236.281235
	C456.827576,243.747162 452.255524,249.327072 443.327942,251.810577
z"/>
<path fill="#FE5957" opacity="1.000000" stroke="none"
	d="
M426.295044,257.029419
	C416.477966,253.361969 408.212921,247.990784 402.958435,238.419769
	C407.104767,234.862381 411.353821,231.630386 415.916138,228.240387
	C420.028534,234.219070 426.137726,238.930420 427.416504,246.641006
	C427.844635,249.222626 428.873993,251.704529 429.789978,254.554047
	C428.832336,255.545654 427.713287,256.215240 426.295044,257.029419
z"/>
<path fill="#FD4643" opacity="1.000000" stroke="none"
	d="
M415.842957,282.010071
	C406.107971,288.353119 395.666809,287.101013 386.739014,277.796021
	C387.281982,272.282776 387.975067,267.511414 388.932800,263.032593
	C390.649994,269.917938 394.168091,274.653107 400.964386,276.472809
	C407.524475,278.229279 412.421844,275.184326 416.951355,271.410858
	C416.593994,275.222290 416.218475,278.616180 415.842957,282.010071
z"/>
<path fill="#6D8920" opacity="1.000000" stroke="none"
	d="
M388.668152,262.740051
	C387.975067,267.511414 387.281982,272.282776 386.524780,277.504700
	C377.584381,267.215759 379.465027,253.484528 391.264008,244.882416
	C392.006470,246.803925 392.454742,248.875336 392.623810,251.582611
	C391.119110,255.725677 389.893646,259.232880 388.668152,262.740051
z"/>
<path fill="#678C1D" opacity="1.000000" stroke="none"
	d="
M334.848145,192.488159
	C335.356598,192.139496 335.638733,192.255478 335.948364,193.168396
	C336.081635,195.897141 336.123077,197.985580 336.164490,200.074005
	C336.092010,206.445740 336.019562,212.817490 335.888092,219.669495
	C335.062408,219.165253 334.295746,218.180725 333.321747,216.951874
	C330.052063,208.501328 330.081451,200.498383 334.848145,192.488159
z"/>
<path fill="#6D8A21" opacity="1.000000" stroke="none"
	d="
M416.158630,281.867615
	C416.218475,278.616180 416.593994,275.222290 417.106140,271.180939
	C417.534912,270.065369 417.827087,269.597229 418.119263,269.129120
	C420.184052,268.486115 422.248871,267.843140 424.654205,267.076172
	C425.359192,273.724762 421.204224,277.890778 416.158630,281.867615
z"/>
<path fill="#6D8A21" opacity="1.000000" stroke="none"
	d="
M425.161316,266.907715
	C425.123657,266.602448 425.289551,266.183258 425.649109,265.649658
	C425.683411,265.954773 425.524139,266.374268 425.161316,266.907715
z"/>
<path fill="#FD5858" opacity="1.000000" stroke="none"
	d="
M315.127777,87.663887
	C328.400452,90.335640 339.379700,97.011147 348.576019,107.343246
	C344.373077,114.404427 338.446686,118.532822 331.072205,120.936501
	C328.664368,121.721313 326.610840,123.593140 324.395264,124.967827
	C317.800903,119.172279 310.141144,116.226959 301.339417,115.942245
	C292.418884,115.653679 286.022919,109.262421 286.004547,100.969009
	C285.986023,92.610870 292.091675,86.619942 301.572815,86.449493
	C300.552826,90.738136 299.876556,94.812927 303.998138,97.044838
	C306.066376,98.164825 309.564148,98.364571 311.643829,97.368919
	C315.421783,95.560226 316.788574,91.919945 315.127777,87.663887
z"/>
<path fill="#FD7A7B" opacity="1.000000" stroke="none"
	d="
M324.375793,125.385315
	C326.610840,123.593140 328.664368,121.721313 331.072205,120.936501
	C338.446686,118.532822 344.373077,114.404427 348.783386,107.624176
	C359.191040,106.294556 362.333221,110.554382 358.860535,120.863335
	C359.083527,121.255081 358.960907,121.389771 358.551025,121.378189
	C350.587463,127.789207 342.832947,133.865784 332.825714,136.061462
	C325.739258,135.141846 323.704498,132.677216 324.375793,125.385315
z"/>
<path fill="#FE5857" opacity="1.000000" stroke="none"
	d="
M332.889832,136.383713
	C342.832947,133.865784 350.587463,127.789207 358.464661,121.407135
	C361.004974,128.654877 363.221771,135.862091 365.020874,143.512299
	C359.038269,144.643600 353.480835,145.780945 347.906006,145.873688
	C343.683411,145.943954 339.438660,144.682037 335.203766,144.012955
	C334.677155,142.181213 334.150513,140.349457 333.385101,138.260162
	C333.082184,137.570404 333.018066,137.138184 332.889832,136.383713
z"/>
<path fill="#F52E2F" opacity="1.000000" stroke="none"
	d="
M314.921021,87.389458
	C316.788574,91.919945 315.421783,95.560226 311.643829,97.368919
	C309.564148,98.364571 306.066376,98.164825 303.998138,97.044838
	C299.876556,94.812927 300.552826,90.738136 301.979340,86.529510
	C307.986908,82.648422 310.025452,82.803955 314.921021,87.389458
z"/>
<path fill="#66891E" opacity="1.000000" stroke="none"
	d="
M272.674500,387.924622
	C272.769226,388.122253 272.619720,388.444702 272.227661,388.889587
	C272.133484,388.691162 272.281860,388.370300 272.674500,387.924622
z"/>
<path fill="#FE7A79" opacity="1.000000" stroke="none"
	d="
M334.934082,144.243469
	C339.438660,144.682037 343.683411,145.943954 347.906006,145.873688
	C353.480835,145.780945 359.038269,144.643600 365.064423,143.942474
	C371.871857,149.347900 372.080383,153.311646 365.681030,158.682617
	C355.381439,161.641510 345.683105,162.261108 335.980804,159.042511
	C328.286285,155.023087 327.776794,149.384644 334.934082,144.243469
z"/>
<path fill="#FF5757" opacity="1.000000" stroke="none"
	d="
M335.988129,159.506470
	C345.683105,162.261108 355.381439,161.641510 365.469727,158.968536
	C365.907471,164.959808 365.953156,170.994934 365.998291,177.493866
	C364.568726,177.754532 362.859070,176.939423 361.755371,177.445602
	C353.348785,181.301010 345.119781,179.637619 336.474792,177.074341
	C336.056732,171.360352 336.026093,165.665390 335.988129,159.506470
z"/>
<path fill="#FF5757" opacity="1.000000" stroke="none"
	d="
M336.361206,200.339996
	C336.123077,197.985580 336.081635,195.897141 336.089478,193.360046
	C345.889374,195.190689 355.597900,195.873871 365.565063,192.074036
	C365.944122,194.708893 365.948212,197.414902 365.893921,200.567749
	C363.092163,204.060516 360.858887,207.945724 357.503632,209.984772
	C349.513916,214.840271 340.764282,210.616470 336.361206,200.339996
z"/>
<path fill="#FF5757" opacity="1.000000" stroke="none"
	d="
M417.739746,269.074280
	C417.827087,269.597229 417.534912,270.065369 417.087952,270.763397
	C412.421844,275.184326 407.524475,278.229279 400.964386,276.472809
	C394.168091,274.653107 390.649994,269.917938 388.932800,263.032593
	C389.893646,259.232880 391.119110,255.725677 392.619141,251.965988
	C399.342072,256.857086 405.731567,262.077759 412.286346,267.081940
	C413.666382,268.135498 415.653076,268.394348 417.739746,269.074280
z"/>
</svg>
